<?xml version="1.0" standalone="no"?>
<!DOCTYPE svg PUBLIC "-//W3C//DTD SVG 20010904//EN"
 "http://www.w3.org/TR/2001/REC-SVG-20010904/DTD/svg10.dtd">
<svg version="1.0" xmlns="http://www.w3.org/2000/svg"
 width="670.000000pt" height="373.000000pt" viewBox="0 0 670.000000 373.000000"
 preserveAspectRatio="xMidYMid meet">

<g transform="translate(0.000000,373.000000) scale(0.100000,-0.100000)"
fill="#FFFFFF" stroke="none">
<path d="M1895 3723 c-11 -3 -23 -8 -28 -12 -12 -12 -9 -3683 4 -3696 14 -14
2906 -19 2943 -5 l26 10 0 1845 0 1845 -26 10 c-26 10 -2878 13 -2919 3z
m2639 -116 l100 -2 -77 -77 -77 -78 -1130 0 -1130 0 -77 78 -77 77 635 5 c584
5 1597 3 1833 -3z m-2404 -1742 l0 -1500 -80 -80 -80 -80 0 1660 0 1660 80
-80 80 -80 0 -1500z m2600 -2 l0 -1658 -80 80 -80 80 0 1500 0 1500 77 77 c43
43 79 78 80 78 2 0 3 -746 3 -1657z m-280 1107 l0 -360 -340 0 -340 0 0 88 c0
105 -18 184 -62 271 -34 67 -119 163 -160 181 -12 6 -37 19 -54 29 -51 31
-138 51 -221 51 -141 0 -248 -45 -350 -147 -99 -98 -142 -215 -143 -385 l0
-88 -265 0 -265 0 0 360 0 360 1100 0 1100 0 0 -360z m-1021 108 c63 -28 144
-109 177 -176 l29 -57 5 -430 c3 -236 10 -439 14 -450 26 -65 40 -88 74 -123
20 -21 44 -41 52 -45 11 -4 0 -20 -43 -59 -32 -29 -88 -81 -125 -115 l-67 -62
-6 627 c-6 673 -5 669 -63 770 -20 34 -104 112 -122 112 -7 0 -14 4 -14 10 0
5 -15 14 -32 20 -29 8 -26 9 21 4 30 -3 75 -14 100 -26z m-169 -95 c53 -19
117 -84 142 -146 14 -34 17 -76 17 -233 1 -217 -7 -250 -77 -321 -61 -62 -94
-76 -182 -76 -88 0 -121 14 -183 77 -55 55 -67 93 -67 202 0 87 1 94 20 94 18
0 20 -7 20 -74 0 -83 13 -106 57 -106 51 0 63 24 63 125 0 70 -4 96 -15 105
-8 7 -15 19 -15 26 0 8 -5 14 -11 14 -6 0 -17 7 -25 15 -9 8 -33 15 -55 15
l-39 0 0 64 c0 36 5 68 10 71 6 3 10 13 10 21 0 17 75 100 105 117 33 18 118
35 150 30 17 -2 50 -12 75 -20z m-480 -772 l0 -279 -47 13 c-27 7 -66 19 -88
28 -150 56 -221 77 -302 88 l-93 13 0 208 0 208 265 0 265 0 0 -279z m1670 74
l0 -205 -47 0 c-54 0 -164 27 -244 60 -145 59 -166 65 -291 81 l-98 13 0 128
0 128 340 0 340 0 0 -205z m-1052 -855 c-13 -11 -28 -19 -33 -20 -28 -1 -170
54 -212 82 -55 36 -143 125 -143 145 0 7 -4 13 -10 13 -17 0 -11 14 23 52 66
74 127 233 127 330 0 48 0 48 34 48 45 0 157 42 198 74 l33 25 3 -365 2 -366
-22 -18z m-405 693 c34 -16 37 -21 37 -58 -1 -95 -42 -216 -95 -280 l-24 -30
-1 209 0 208 23 -16 c12 -9 39 -24 60 -33z m928 -32 c73 -17 135 -37 239 -79
74 -29 225 -62 286 -62 2 0 4 -349 4 -775 l0 -775 -181 0 c-171 0 -181 1 -168
18 8 9 17 19 20 22 5 5 33 57 60 114 11 24 14 130 14 570 0 609 2 591 -76 669
-54 55 -91 72 -184 87 -121 19 -165 64 -165 170 l0 60 33 0 c18 0 71 -9 118
-19z m-1526 -160 c68 -19 170 -53 210 -72 31 -14 146 -49 162 -49 12 0 14 -16
11 -89 -2 -75 -6 -92 -24 -108 -24 -21 -75 -96 -93 -138 -7 -16 -22 -64 -32
-105 -16 -65 -19 -116 -19 -375 0 -238 3 -313 15 -360 19 -74 58 -153 96 -195
16 -17 29 -33 29 -36 0 -2 -112 -4 -250 -4 l-250 0 -2 148 c-2 198 -2 485 0
985 l2 417 38 0 c20 0 69 -9 107 -19z m1593 -188 c77 -49 92 -85 92 -222 l0
-109 -72 -58 c-40 -33 -80 -66 -89 -74 -9 -8 -42 -35 -73 -60 -31 -25 -71 -58
-89 -73 -18 -16 -53 -45 -79 -65 -27 -20 -48 -40 -48 -44 0 -4 -5 -8 -10 -8
-6 0 -21 -9 -33 -21 -12 -12 -37 -33 -55 -47 l-33 -25 -72 36 c-73 36 -128 49
-224 51 -29 1 -53 5 -53 9 0 4 0 12 0 17 0 6 4 10 8 10 8 0 102 82 176 153 21
20 41 37 44 37 2 0 14 10 26 23 12 12 60 56 106 97 47 41 95 85 107 97 12 13
27 23 33 23 5 0 10 4 10 8 0 4 44 46 97 92 53 47 117 104 142 128 25 23 50 42
54 42 4 0 20 -8 35 -17z m-1074 -181 c15 -29 129 -152 140 -152 4 0 22 -10 39
-23 28 -21 55 -33 145 -68 23 -9 22 -10 -24 -52 -26 -23 -59 -53 -73 -67 -14
-14 -60 -54 -101 -90 -41 -36 -76 -68 -78 -72 -6 -14 -62 -9 -94 8 -50 26
-105 87 -117 130 -22 79 -2 234 34 274 8 9 15 21 15 26 0 9 88 114 96 114 2 0
10 -12 18 -28z m1166 -616 c0 -187 -4 -316 -11 -337 -24 -78 -79 -149 -134
-174 -74 -33 -103 -35 -417 -35 -299 0 -319 1 -314 18 7 26 26 152 29 192 l2
35 287 5 c157 3 290 9 294 13 13 12 9 76 -4 90 -8 7 -44 13 -94 13 l-81 2 -24
40 c-26 44 -27 40 33 92 16 13 47 39 70 56 38 30 57 45 107 87 12 10 64 53
116 95 52 43 101 85 110 94 9 9 19 17 24 17 4 1 7 -136 7 -303z m-1078 -45
l107 -6 -36 -62 c-21 -35 -41 -63 -46 -63 -24 0 -117 33 -117 41 0 5 -6 9 -12
9 -23 1 -128 110 -128 133 0 3 28 -7 63 -21 48 -20 86 -27 169 -31z m364 -32
c47 -22 124 -84 124 -100 0 -4 -70 -6 -155 -5 -85 0 -155 4 -155 9 0 4 17 34
38 68 34 56 39 60 68 56 16 -3 52 -16 80 -28z m-550 -144 c74 -48 124 -64 222
-71 69 -6 82 -10 77 -23 -2 -9 -9 -60 -15 -115 -5 -54 -13 -102 -16 -107 -12
-20 -88 -8 -169 27 -32 13 -115 89 -115 104 0 4 -4 10 -10 12 -19 6 -50 117
-50 180 1 48 3 59 11 45 5 -9 35 -33 65 -52z m1741 -522 l77 -78 -642 -3
c-353 -1 -931 -1 -1284 0 l-642 3 75 77 74 76 1132 1 1133 1 77 -77z"/>
<path d="M3143 2671 c-36 -16 -42 -82 -9 -103 18 -13 151 -9 164 4 14 14 16
67 3 87 -10 16 -127 25 -158 12z"/>
</g>
</svg>
