<?xml version="1.0" standalone="no"?>
<!DOCTYPE svg PUBLIC "-//W3C//DTD SVG 20010904//EN"
 "http://www.w3.org/TR/2001/REC-SVG-20010904/DTD/svg10.dtd">
<svg version="1.0" xmlns="http://www.w3.org/2000/svg"
 width="659.000000pt" height="379.000000pt" viewBox="0 0 659.000000 379.000000"
 preserveAspectRatio="xMidYMid meet">

<g transform="translate(0.000000,379.000000) scale(0.100000,-0.100000)"
fill="#FFFFFF" stroke="none">
<path d="M2323 3760 c-224 -66 -394 -281 -393 -498 0 -64 25 -162 56 -226 30
-61 99 -146 120 -146 16 0 93 52 207 141 180 140 517 503 517 557 0 17 -93 95
-149 125 -118 65 -243 81 -358 47z"/>
<path d="M2866 3513 c-17 -44 -129 -195 -201 -271 -105 -111 -371 -336 -472
-398 -27 -17 -9 -30 87 -64 59 -22 101 -30 147 -30 62 0 67 2 137 54 81 60
319 296 363 359 26 38 28 47 26 128 -1 72 -7 100 -33 163 -33 78 -43 89 -54
59z"/>
<path d="M2950 3092 c-59 -79 -228 -245 -353 -345 -32 -26 -45 -43 -40 -52 8
-14 98 -85 108 -85 3 0 49 39 103 86 114 100 148 118 215 110 39 -4 49 -2 54
12 4 9 30 40 60 69 29 28 53 60 53 70 -1 22 -130 177 -150 180 -8 2 -31 -19
-50 -45z"/>
<path d="M3359 3092 c-15 -9 -73 -68 -129 -129 -57 -62 -114 -120 -127 -128
-49 -32 -24 -76 87 -148 30 -20 75 -51 99 -69 70 -52 100 -46 175 33 144 152
196 214 196 234 0 21 -165 191 -208 214 -30 16 -63 14 -93 -7z"/>
<path d="M3696 2839 c-14 -11 -47 -48 -73 -82 -25 -34 -75 -92 -110 -129 -35
-36 -63 -75 -63 -86 0 -20 41 -57 97 -85 50 -26 103 -82 103 -108 0 -14 -9
-42 -21 -63 -23 -43 -30 -117 -13 -123 6 -2 43 24 81 59 39 35 83 74 100 88
16 14 57 57 90 96 33 39 75 85 91 104 64 70 66 122 5 174 -20 17 -67 59 -105
94 -93 86 -133 100 -182 61z"/>
<path d="M2905 2746 c-32 -14 -141 -110 -244 -216 -67 -69 -252 -294 -283
-345 -35 -58 -23 -93 130 -395 48 -96 110 -227 136 -290 27 -63 81 -185 122
-271 41 -86 74 -164 74 -172 0 -9 -13 -53 -29 -99 -215 -617 -222 -641 -219
-697 l3 -56 75 -17 c41 -9 145 -28 230 -43 305 -51 436 -75 505 -89 168 -34
205 -39 220 -26 8 7 15 20 15 30 0 10 6 33 14 51 8 19 21 74 29 124 52 297 78
423 108 526 19 68 32 82 230 265 36 33 89 153 89 200 0 31 -169 184 -203 184
-16 0 -28 7 -31 18 -3 9 -18 30 -33 47 -16 16 -54 62 -85 103 -64 83 -86 102
-143 124 -22 9 -76 33 -120 53 -151 70 -188 85 -211 85 -21 0 -23 -2 -13 -27
10 -28 79 -151 154 -278 42 -71 48 -92 106 -404 8 -41 24 -81 45 -113 l33 -49
-45 -20 c-25 -10 -50 -19 -54 -19 -24 0 -49 -108 -75 -325 -20 -165 -32 -235
-45 -255 -19 -31 -22 4 -11 127 25 291 34 473 24 496 -7 16 -26 26 -64 34 -94
22 -90 28 43 77 26 9 59 27 74 38 23 19 26 26 20 62 -5 34 -70 197 -139 346
-188 409 -188 409 -244 435 -21 10 -60 33 -86 52 -26 20 -69 43 -95 53 -57 22
-66 53 -17 58 56 6 115 85 115 154 0 65 16 68 65 13 25 -27 45 -54 46 -60 0
-5 15 -30 33 -54 40 -56 71 -65 191 -58 112 6 176 28 208 70 28 39 52 118 43
149 -11 45 -457 348 -512 348 -6 0 -19 9 -30 21 -42 47 -94 59 -149 35z"/>
<path d="M3723 2197 c-264 -264 -269 -271 -240 -324 7 -12 56 -54 109 -93 82
-60 102 -70 138 -70 36 0 48 7 93 48 29 27 129 115 222 196 94 81 178 160 187
174 28 42 23 84 -15 134 -18 24 -52 71 -75 105 -49 72 -65 83 -124 83 -43 0
-43 -1 -295 -253z"/>
<path d="M3102 2148 c-7 -7 -12 -18 -12 -26 0 -18 112 -135 173 -179 59 -43
61 -43 172 56 44 39 83 71 87 71 5 0 8 6 8 13 0 9 -24 11 -103 6 -57 -4 -122
-10 -145 -14 -66 -11 -99 1 -128 46 -26 42 -33 46 -52 27z"/>
<path d="M4198 2018 c-40 -35 -75 -65 -78 -68 -3 -3 -78 -68 -167 -143 -89
-76 -164 -145 -167 -153 -11 -28 -6 -42 26 -91 45 -69 79 -103 102 -103 18 0
501 315 549 357 9 9 17 24 17 35 0 24 -104 182 -137 208 -41 32 -66 25 -145
-42z"/>
<path d="M4285 1648 c-11 -6 -55 -37 -97 -69 -42 -32 -87 -63 -100 -70 -34
-18 -107 -73 -108 -81 0 -3 58 -58 129 -122 71 -63 135 -122 143 -129 35 -36
91 -47 140 -28 42 16 145 127 164 176 17 46 17 46 -7 78 -45 61 -223 257 -234
257 -5 0 -19 -6 -30 -12z"/>
<path d="M4546 1230 c-33 -45 -101 -100 -126 -100 -19 0 -10 -16 28 -53 21
-20 48 -37 60 -37 34 0 152 124 152 159 0 13 -59 81 -70 81 -5 0 -24 -22 -44
-50z"/>
</g>
</svg>
